<svg width="32" height="32" viewBox="0 0 32 32" fill="none" xmlns="http://www.w3.org/2000/svg">
<rect width="32" height="32" rx="16" fill="#E7E7E7"/>
<path fill-rule="evenodd" clip-rule="evenodd" d="M10.411 10.4107C10.5673 10.2544 10.7792 10.1667 11.0002 10.1667C11.2211 10.1667 11.433 10.2544 11.5893 10.4107L16.0001 14.8215L20.411 10.4107C20.4879 10.3311 20.5798 10.2676 20.6815 10.2239C20.7831 10.1802 20.8925 10.1572 21.0031 10.1563C21.1138 10.1553 21.2235 10.1764 21.326 10.2183C21.4284 10.2602 21.5214 10.3221 21.5996 10.4003C21.6779 10.4786 21.7398 10.5716 21.7817 10.674C21.8235 10.7764 21.8446 10.8862 21.8437 10.9968C21.8427 11.1075 21.8197 11.2168 21.776 11.3185C21.7324 11.4202 21.6689 11.5121 21.5893 11.589L17.1785 15.9998L21.5893 20.4107C21.7411 20.5678 21.8251 20.7783 21.8232 20.9968C21.8213 21.2153 21.7337 21.4243 21.5791 21.5788C21.4246 21.7333 21.2156 21.821 20.9971 21.8229C20.7786 21.8248 20.5681 21.7408 20.411 21.589L16.0001 17.1782L11.5893 21.589C11.4322 21.7408 11.2217 21.8248 11.0032 21.8229C10.7847 21.821 10.5756 21.7333 10.4211 21.5788C10.2666 21.4243 10.179 21.2153 10.1771 20.9968C10.1752 20.7783 10.2592 20.5678 10.411 20.4107L14.8218 15.9998L10.411 11.589C10.2548 11.4327 10.167 11.2208 10.167 10.9998C10.167 10.7789 10.2548 10.5669 10.411 10.4107Z" fill="#78829D"/>
</svg>
