<svg width="86" height="21" viewBox="0 0 86 21" fill="none" xmlns="http://www.w3.org/2000/svg">
<circle cx="5" cy="10.5" r="5" fill="#BC0F50"/>
<path d="M20.6144 15L18.2904 11.01H16.7504V15H15.4764V5.242H18.6264C19.3638 5.242 19.9844 5.368 20.4884 5.62C21.0018 5.872 21.3844 6.21267 21.6364 6.642C21.8884 7.07133 22.0144 7.56133 22.0144 8.112C22.0144 8.784 21.8184 9.37667 21.4264 9.89C21.0438 10.4033 20.4651 10.744 19.6904 10.912L22.1404 15H20.6144ZM16.7504 9.988H18.6264C19.3171 9.988 19.8351 9.82 20.1804 9.484C20.5258 9.13867 20.6984 8.68133 20.6984 8.112C20.6984 7.53333 20.5258 7.08533 20.1804 6.768C19.8444 6.45067 19.3264 6.292 18.6264 6.292H16.7504V9.988ZM30.994 10.87C30.994 11.1127 30.98 11.3693 30.952 11.64H24.82C24.8667 12.396 25.1233 12.9887 25.59 13.418C26.066 13.838 26.64 14.048 27.312 14.048C27.8627 14.048 28.32 13.922 28.684 13.67C29.0573 13.4087 29.3187 13.0633 29.468 12.634H30.84C30.6347 13.3713 30.224 13.9733 29.608 14.44C28.992 14.8973 28.2267 15.126 27.312 15.126C26.584 15.126 25.9307 14.9627 25.352 14.636C24.7827 14.3093 24.3347 13.8473 24.008 13.25C23.6813 12.6433 23.518 11.9433 23.518 11.15C23.518 10.3567 23.6767 9.66133 23.994 9.064C24.3113 8.46667 24.7547 8.00933 25.324 7.692C25.9027 7.36533 26.5653 7.202 27.312 7.202C28.04 7.202 28.684 7.36067 29.244 7.678C29.804 7.99533 30.2333 8.434 30.532 8.994C30.84 9.54467 30.994 10.17 30.994 10.87ZM29.678 10.604C29.678 10.1187 29.5707 9.70333 29.356 9.358C29.1413 9.00333 28.8473 8.73733 28.474 8.56C28.11 8.37333 27.704 8.28 27.256 8.28C26.612 8.28 26.0613 8.48533 25.604 8.896C25.156 9.30667 24.8993 9.876 24.834 10.604H29.678ZM32.1997 11.15C32.1997 10.3567 32.3583 9.666 32.6757 9.078C32.993 8.48067 33.4317 8.01867 33.9917 7.692C34.561 7.36533 35.2097 7.202 35.9377 7.202C36.8803 7.202 37.655 7.43067 38.2617 7.888C38.8777 8.34533 39.2837 8.98 39.4797 9.792H38.1077C37.977 9.32533 37.7203 8.95667 37.3377 8.686C36.9643 8.41533 36.4977 8.28 35.9377 8.28C35.2097 8.28 34.6217 8.532 34.1737 9.036C33.7257 9.53067 33.5017 10.2353 33.5017 11.15C33.5017 12.074 33.7257 12.788 34.1737 13.292C34.6217 13.796 35.2097 14.048 35.9377 14.048C36.4977 14.048 36.9643 13.9173 37.3377 13.656C37.711 13.3947 37.9677 13.0213 38.1077 12.536H39.4797C39.2743 13.32 38.8637 13.95 38.2477 14.426C37.6317 14.8927 36.8617 15.126 35.9377 15.126C35.2097 15.126 34.561 14.9627 33.9917 14.636C33.4317 14.3093 32.993 13.8473 32.6757 13.25C32.3583 12.6527 32.1997 11.9527 32.1997 11.15ZM44.5256 15.126C43.8069 15.126 43.1536 14.9627 42.5656 14.636C41.9869 14.3093 41.5296 13.8473 41.1936 13.25C40.8669 12.6433 40.7036 11.9433 40.7036 11.15C40.7036 10.366 40.8716 9.67533 41.2076 9.078C41.5529 8.47133 42.0196 8.00933 42.6076 7.692C43.1956 7.36533 43.8536 7.202 44.5816 7.202C45.3096 7.202 45.9676 7.36533 46.5556 7.692C47.1436 8.00933 47.6056 8.46667 47.9416 9.064C48.2869 9.66133 48.4596 10.3567 48.4596 11.15C48.4596 11.9433 48.2822 12.6433 47.9276 13.25C47.5822 13.8473 47.1109 14.3093 46.5136 14.636C45.9162 14.9627 45.2536 15.126 44.5256 15.126ZM44.5256 14.006C44.9829 14.006 45.4122 13.8987 45.8136 13.684C46.2149 13.4693 46.5369 13.1473 46.7796 12.718C47.0316 12.2887 47.1576 11.766 47.1576 11.15C47.1576 10.534 47.0362 10.0113 46.7936 9.582C46.5509 9.15267 46.2336 8.83533 45.8416 8.63C45.4496 8.41533 45.0249 8.308 44.5676 8.308C44.1009 8.308 43.6716 8.41533 43.2796 8.63C42.8969 8.83533 42.5889 9.15267 42.3556 9.582C42.1222 10.0113 42.0056 10.534 42.0056 11.15C42.0056 11.7753 42.1176 12.3027 42.3416 12.732C42.5749 13.1613 42.8829 13.4833 43.2656 13.698C43.6482 13.9033 44.0682 14.006 44.5256 14.006ZM51.4086 8.574C51.6326 8.13533 51.95 7.79467 52.3606 7.552C52.7806 7.30933 53.2893 7.188 53.8866 7.188V8.504H53.5506C52.1226 8.504 51.4086 9.27867 51.4086 10.828V15H50.1346V7.328H51.4086V8.574ZM54.8813 11.136C54.8813 10.352 55.04 9.666 55.3573 9.078C55.6746 8.48067 56.1086 8.01867 56.6593 7.692C57.2193 7.36533 57.8446 7.202 58.5353 7.202C59.1326 7.202 59.688 7.342 60.2013 7.622C60.7146 7.89267 61.1066 8.252 61.3773 8.7V4.64H62.6653V15H61.3773V13.558C61.1253 14.0153 60.752 14.3933 60.2573 14.692C59.7626 14.9813 59.184 15.126 58.5213 15.126C57.84 15.126 57.2193 14.958 56.6593 14.622C56.1086 14.286 55.6746 13.8147 55.3573 13.208C55.04 12.6013 54.8813 11.9107 54.8813 11.136ZM61.3773 11.15C61.3773 10.5713 61.2606 10.0673 61.0273 9.638C60.794 9.20867 60.4766 8.882 60.0753 8.658C59.6833 8.42467 59.2493 8.308 58.7733 8.308C58.2973 8.308 57.8633 8.42 57.4713 8.644C57.0793 8.868 56.7666 9.19467 56.5333 9.624C56.3 10.0533 56.1833 10.5573 56.1833 11.136C56.1833 11.724 56.3 12.2373 56.5333 12.676C56.7666 13.1053 57.0793 13.4367 57.4713 13.67C57.8633 13.894 58.2973 14.006 58.7733 14.006C59.2493 14.006 59.6833 13.894 60.0753 13.67C60.4766 13.4367 60.794 13.1053 61.0273 12.676C61.2606 12.2373 61.3773 11.7287 61.3773 11.15ZM65.4762 6.082C65.2336 6.082 65.0282 5.998 64.8602 5.83C64.6922 5.662 64.6082 5.45667 64.6082 5.214C64.6082 4.97133 64.6922 4.766 64.8602 4.598C65.0282 4.43 65.2336 4.346 65.4762 4.346C65.7096 4.346 65.9056 4.43 66.0642 4.598C66.2322 4.766 66.3162 4.97133 66.3162 5.214C66.3162 5.45667 66.2322 5.662 66.0642 5.83C65.9056 5.998 65.7096 6.082 65.4762 6.082ZM66.0922 7.328V15H64.8182V7.328H66.0922ZM72.0015 7.188C72.9349 7.188 73.6909 7.47267 74.2695 8.042C74.8482 8.602 75.1375 9.414 75.1375 10.478V15H73.8775V10.66C73.8775 9.89467 73.6862 9.31133 73.3035 8.91C72.9209 8.49933 72.3982 8.294 71.7355 8.294C71.0635 8.294 70.5269 8.504 70.1255 8.924C69.7335 9.344 69.5375 9.95533 69.5375 10.758V15H68.2635V7.328H69.5375V8.42C69.7895 8.028 70.1302 7.72467 70.5595 7.51C70.9982 7.29533 71.4789 7.188 72.0015 7.188ZM80.3826 7.202C81.0453 7.202 81.624 7.34667 82.1186 7.636C82.6226 7.92533 82.996 8.28933 83.2386 8.728V7.328H84.5266V15.168C84.5266 15.868 84.3773 16.4887 84.0786 17.03C83.78 17.5807 83.3506 18.01 82.7906 18.318C82.24 18.626 81.596 18.78 80.8586 18.78C79.8506 18.78 79.0106 18.542 78.3386 18.066C77.6666 17.59 77.27 16.9413 77.1486 16.12H78.4086C78.5486 16.5867 78.838 16.96 79.2766 17.24C79.7153 17.5293 80.2426 17.674 80.8586 17.674C81.5586 17.674 82.128 17.4547 82.5666 17.016C83.0146 16.5773 83.2386 15.9613 83.2386 15.168V13.558C82.9866 14.006 82.6133 14.3793 82.1186 14.678C81.624 14.9767 81.0453 15.126 80.3826 15.126C79.7013 15.126 79.0806 14.958 78.5206 14.622C77.97 14.286 77.536 13.8147 77.2186 13.208C76.9013 12.6013 76.7426 11.9107 76.7426 11.136C76.7426 10.352 76.9013 9.666 77.2186 9.078C77.536 8.48067 77.97 8.01867 78.5206 7.692C79.0806 7.36533 79.7013 7.202 80.3826 7.202ZM83.2386 11.15C83.2386 10.5713 83.122 10.0673 82.8886 9.638C82.6553 9.20867 82.338 8.882 81.9366 8.658C81.5446 8.42467 81.1106 8.308 80.6346 8.308C80.1586 8.308 79.7246 8.42 79.3326 8.644C78.9406 8.868 78.628 9.19467 78.3946 9.624C78.1613 10.0533 78.0446 10.5573 78.0446 11.136C78.0446 11.724 78.1613 12.2373 78.3946 12.676C78.628 13.1053 78.9406 13.4367 79.3326 13.67C79.7246 13.894 80.1586 14.006 80.6346 14.006C81.1106 14.006 81.5446 13.894 81.9366 13.67C82.338 13.4367 82.6553 13.1053 82.8886 12.676C83.122 12.2373 83.2386 11.7287 83.2386 11.15Z" fill="#BC0F50"/>
</svg>
