<svg width="56" height="56" viewBox="0 0 56 56" fill="none" xmlns="http://www.w3.org/2000/svg">
<rect width="56" height="56" rx="28" fill="#4981F6"/>
<g clip-path="url(#clip0_7576_30086)">
<path d="M28.0008 14C25.2962 14 23.0957 16.2005 23.0957 18.9051V28.5453C23.0957 31.2496 25.2962 33.4501 28.0008 33.4501C30.7054 33.4501 32.9059 31.265 32.9059 28.579V18.9051C32.9059 16.2005 30.7054 14 28.0008 14ZM30.8618 28.5788C30.8618 30.1375 29.5782 31.406 28.0008 31.406C26.4233 31.406 25.1395 30.1228 25.1395 28.545V18.9051C25.1395 17.3273 26.423 16.0438 28.0008 16.0438C29.5786 16.0438 30.8621 17.3273 30.8618 18.9051V28.5788Z" fill="white"/>
<path d="M29.0233 36.3828H26.9795V40.9814H29.0233V36.3828Z" fill="white"/>
<path d="M30.692 39.9609H25.31C24.7455 39.9609 24.2881 40.4184 24.2881 40.9828C24.2881 41.5473 24.7455 42.0047 25.31 42.0047H30.692C31.2564 42.0047 31.7139 41.5473 31.7139 40.9828C31.7139 40.4184 31.2564 39.9609 30.692 39.9609Z" fill="white"/>
<path d="M35.7347 26.8438C35.1703 26.8438 34.7128 27.3012 34.7128 27.8656V28.6832C34.7128 32.3831 31.7023 35.3936 28.0023 35.3936C24.302 35.3936 21.2918 32.3832 21.2918 28.6832V27.8656C21.2918 27.3012 20.8344 26.8438 20.2699 26.8438C19.7055 26.8438 19.248 27.3012 19.248 27.8656V28.6832C19.248 33.5103 23.1752 37.4374 28.0023 37.4374C32.8294 37.4374 36.7566 33.5103 36.7566 28.6832V27.8656C36.7566 27.3013 36.2991 26.8438 35.7347 26.8438Z" fill="white"/>
</g>
<defs>
<clipPath id="clip0_7576_30086">
<rect width="28" height="28" fill="white" transform="translate(14 14)"/>
</clipPath>
</defs>
</svg>
